<svg width="23" height="28" viewBox="0 0 23 28" fill="none" xmlns="http://www.w3.org/2000/svg">
<path d="M11.7485 4.18643C17.556 4.18643 22.2634 8.89445 22.2634 14.7013C22.2634 20.5088 17.556 25.2161 11.7485 25.2161C5.94096 25.2161 1.23367 20.5088 1.23367 14.7013C1.23367 8.89445 5.94105 4.18643 11.7485 4.18643Z" stroke="#86BC42" stroke-width="0.70099"/>
<path d="M12.3386 21.3308H10.8613V11.5772H12.3386V21.3308ZM10.7367 8.9341C10.7367 8.59593 10.8198 8.34971 10.9859 8.19546C11.152 8.03527 11.3597 7.95518 11.6089 7.95518C11.8462 7.95518 12.0509 8.03527 12.2229 8.19546C12.395 8.35565 12.481 8.60186 12.481 8.9341C12.481 9.26634 12.395 9.51552 12.2229 9.68164C12.0509 9.84183 11.8462 9.92192 11.6089 9.92192C11.3597 9.92192 11.152 9.84183 10.9859 9.68164C10.8198 9.51552 10.7367 9.26634 10.7367 8.9341Z" fill="#86BC42"/>
</svg>
